<?xml version="1.0" standalone="no"?>
<!DOCTYPE svg PUBLIC "-//W3C//DTD SVG 20010904//EN"
 "http://www.w3.org/TR/2001/REC-SVG-20010904/DTD/svg10.dtd">
<svg version="1.0" xmlns="http://www.w3.org/2000/svg"
 width="152.000000pt" height="51.000000pt" viewBox="0 0 152.000000 51.000000"
 preserveAspectRatio="xMidYMid meet">

<g transform="translate(0.000000,51.000000) scale(0.100000,-0.100000)"
fill="#000000" stroke="none">
<path d="M655 496 c-40 -18 -85 -79 -96 -127 -8 -34 -6 -44 13 -70 25 -33 48
-42 102 -37 36 3 38 1 52 -37 8 -22 12 -51 8 -64 -6 -28 30 -134 53 -152 24
-21 75 11 101 64 13 26 27 49 33 52 5 4 9 25 9 49 0 35 6 48 35 76 39 38 44
75 10 75 -31 1 -43 12 -70 64 -27 53 -73 83 -116 74 -20 -4 -29 1 -43 21 -18
29 -45 32 -91 12z m84 -38 c15 -18 27 -21 69 -19 l50 2 27 -60 c31 -67 57 -97
77 -85 7 4 -4 -12 -26 -35 -32 -37 -37 -49 -33 -76 3 -18 1 -37 -4 -42 -5 -5
-21 -33 -36 -63 -16 -30 -36 -56 -46 -58 -23 -5 -50 57 -53 123 -4 97 -46 153
-104 141 -37 -7 -80 26 -80 61 0 14 9 41 21 59 44 71 105 94 138 52z"/>
<path d="M256 238 c-9 -12 -16 -30 -16 -39 0 -9 -7 -19 -15 -23 -8 -3 -15 -10
-15 -16 0 -5 7 -10 15 -10 12 0 15 -13 15 -59 0 -33 4 -62 8 -65 18 -11 31 13
34 64 3 54 4 55 36 58 l32 3 0 -60 c0 -54 2 -61 20 -61 17 0 20 7 20 44 0 51
21 80 51 71 14 -5 19 -1 19 13 0 23 -18 33 -40 22 -8 -4 -43 -5 -78 -2 -51 4
-62 8 -60 20 2 9 14 19 28 22 36 9 32 34 -7 38 -23 2 -35 -3 -47 -20z"/>
<path d="M557 254 c-8 -9 -10 -218 -1 -226 3 -3 14 -4 25 -1 13 4 19 14 19 34
0 37 15 37 34 0 14 -26 48 -46 60 -34 2 3 -5 20 -16 39 -19 32 -19 36 -4 53
23 25 21 61 -4 61 -11 0 -20 -6 -20 -14 0 -16 -26 -46 -40 -46 -5 0 -10 30
-12 67 -2 52 -7 68 -18 71 -9 1 -19 0 -23 -4z"/>
<path d="M69 183 c-17 -38 -39 -87 -50 -110 l-18 -43 25 0 c13 0 27 7 30 15 8
21 100 21 108 0 4 -12 56 -23 56 -11 0 16 -102 216 -110 216 -6 0 -25 -30 -41
-67z m71 -79 c0 -7 -46 -4 -53 2 -3 4 1 20 10 37 l15 31 14 -33 c8 -18 14 -35
14 -37z"/>
<path d="M487 244 c-16 -16 -7 -44 14 -44 15 0 20 5 17 22 -3 22 -19 33 -31
22z"/>
<path d="M1284 205 c-5 -22 -12 -25 -53 -26 -25 -1 -61 -1 -80 0 -29 3 -33 0
-26 -16 4 -10 7 -42 6 -71 -2 -62 2 -72 29 -65 16 4 20 14 20 53 0 55 11 67
60 66 34 -1 35 -2 38 -46 4 -54 25 -80 64 -80 36 0 41 37 6 42 -20 3 -23 9
-23 43 0 34 3 40 23 43 31 5 29 32 -3 32 -20 0 -25 5 -25 25 0 15 -6 25 -15
25 -8 0 -17 -11 -21 -25z"/>
<path d="M480 105 c0 -68 2 -75 20 -75 18 0 20 7 20 75 0 68 -2 75 -20 75 -18
0 -20 -7 -20 -75z"/>
<path d="M970 160 c-29 -29 -27 -84 5 -115 27 -27 45 -31 63 -13 8 8 18 9 36
0 13 -6 26 -8 29 -6 9 9 -6 139 -17 146 -24 16 -96 8 -116 -12z m85 -20 c10
-17 -5 -68 -22 -74 -34 -13 -59 44 -31 72 15 15 45 16 53 2z"/>
<path d="M1402 168 c-15 -15 -16 -55 0 -64 6 -4 25 -10 41 -13 17 -4 32 -11
34 -18 5 -15 -28 -26 -41 -13 -15 15 -46 12 -46 -5 0 -8 9 -19 19 -25 49 -26
114 3 109 48 -3 23 -10 29 -45 36 -24 6 -43 14 -43 18 0 15 30 21 45 8 8 -7
22 -9 31 -6 15 6 15 8 -1 26 -21 23 -84 27 -103 8z"/>
</g>
</svg>
